<mxfile host="app.diagrams.net" modified="2021-05-22T04:21:25.318Z" agent="5.0 (Macintosh; Intel Mac OS X 10_15_6) AppleWebKit/605.1.15 (KHTML, like Gecko) Version/14.0.3 Safari/605.1.15" etag="s0XP3sSaprfLGEqSjiO4" version="14.7.0" type="github">
  <diagram id="xRqWNPOQ0WMgPJ2FyYGw" name="Page-1">
    <mxGraphModel dx="949" dy="496" grid="1" gridSize="10" guides="1" tooltips="1" connect="1" arrows="1" fold="1" page="1" pageScale="1" pageWidth="827" pageHeight="1169" math="0" shadow="0">
      <root>
        <mxCell id="0" />
        <mxCell id="1" parent="0" />
        <mxCell id="KpiGFDMDYY1Z0oeQy9Om-1" value="Simulate Stock Prices Events" style="swimlane;html=1;childLayout=stackLayout;horizontal=1;startSize=20;horizontalStack=0;rounded=0;shadow=0;labelBackgroundColor=none;strokeWidth=1;fontFamily=Verdana;fontSize=8;align=center;" vertex="1" parent="1">
          <mxGeometry x="40" y="40" width="870" height="480" as="geometry" />
        </mxCell>
        <mxCell id="KpiGFDMDYY1Z0oeQy9Om-2" value="stocker" style="swimlane;html=1;startSize=20;horizontal=0;" vertex="1" parent="KpiGFDMDYY1Z0oeQy9Om-1">
          <mxGeometry y="20" width="870" height="170" as="geometry" />
        </mxCell>
        <mxCell id="KpiGFDMDYY1Z0oeQy9Om-3" value="" style="ellipse;whiteSpace=wrap;html=1;rounded=0;shadow=0;labelBackgroundColor=none;strokeWidth=1;fontFamily=Verdana;fontSize=8;align=center;" vertex="1" parent="KpiGFDMDYY1Z0oeQy9Om-2">
          <mxGeometry x="40" y="115" width="30" height="30" as="geometry" />
        </mxCell>
        <mxCell id="KpiGFDMDYY1Z0oeQy9Om-4" value="Generate fabricated stock price" style="rounded=1;whiteSpace=wrap;html=1;shadow=0;labelBackgroundColor=none;strokeWidth=1;fontFamily=Verdana;fontSize=8;align=center;" vertex="1" parent="KpiGFDMDYY1Z0oeQy9Om-2">
          <mxGeometry x="100" y="110" width="80" height="40" as="geometry" />
        </mxCell>
        <mxCell id="KpiGFDMDYY1Z0oeQy9Om-5" value="" style="endArrow=classic;html=1;exitX=1;exitY=0.5;exitDx=0;exitDy=0;entryX=0;entryY=0.5;entryDx=0;entryDy=0;" edge="1" parent="KpiGFDMDYY1Z0oeQy9Om-2" source="KpiGFDMDYY1Z0oeQy9Om-3" target="KpiGFDMDYY1Z0oeQy9Om-4">
          <mxGeometry width="50" height="50" relative="1" as="geometry">
            <mxPoint x="50" y="199" as="sourcePoint" />
            <mxPoint x="100" y="149" as="targetPoint" />
          </mxGeometry>
        </mxCell>
        <mxCell id="KpiGFDMDYY1Z0oeQy9Om-67" value="Publish price to &amp;nbsp;topic" style="rounded=1;whiteSpace=wrap;html=1;shadow=0;labelBackgroundColor=none;strokeWidth=1;fontFamily=Verdana;fontSize=8;align=center;" vertex="1" parent="KpiGFDMDYY1Z0oeQy9Om-2">
          <mxGeometry x="210" y="110" width="80" height="40" as="geometry" />
        </mxCell>
        <mxCell id="KpiGFDMDYY1Z0oeQy9Om-68" value="" style="endArrow=classic;html=1;entryX=0;entryY=0.5;entryDx=0;entryDy=0;exitX=1;exitY=0.5;exitDx=0;exitDy=0;" edge="1" parent="KpiGFDMDYY1Z0oeQy9Om-2" source="KpiGFDMDYY1Z0oeQy9Om-4" target="KpiGFDMDYY1Z0oeQy9Om-67">
          <mxGeometry width="50" height="50" relative="1" as="geometry">
            <mxPoint x="110" y="230" as="sourcePoint" />
            <mxPoint x="160" y="180" as="targetPoint" />
          </mxGeometry>
        </mxCell>
        <mxCell id="KpiGFDMDYY1Z0oeQy9Om-90" value="&lt;font style=&quot;font-size: 8px&quot;&gt;limit reached&lt;/font&gt;" style="rhombus;whiteSpace=wrap;html=1;" vertex="1" parent="KpiGFDMDYY1Z0oeQy9Om-2">
          <mxGeometry x="230" y="30" width="40" height="40" as="geometry" />
        </mxCell>
        <mxCell id="KpiGFDMDYY1Z0oeQy9Om-92" value="&lt;font style=&quot;font-size: 8px&quot;&gt;End&lt;/font&gt;" style="strokeWidth=2;html=1;shape=mxgraph.flowchart.terminator;whiteSpace=wrap;" vertex="1" parent="KpiGFDMDYY1Z0oeQy9Om-2">
          <mxGeometry x="320" y="30" width="80" height="40" as="geometry" />
        </mxCell>
        <mxCell id="KpiGFDMDYY1Z0oeQy9Om-93" value="" style="endArrow=classic;html=1;exitX=0;exitY=0.5;exitDx=0;exitDy=0;entryX=0.5;entryY=0;entryDx=0;entryDy=0;" edge="1" parent="KpiGFDMDYY1Z0oeQy9Om-2" source="KpiGFDMDYY1Z0oeQy9Om-90" target="KpiGFDMDYY1Z0oeQy9Om-4">
          <mxGeometry width="50" height="50" relative="1" as="geometry">
            <mxPoint x="100" y="100" as="sourcePoint" />
            <mxPoint x="150" y="50" as="targetPoint" />
            <Array as="points">
              <mxPoint x="140" y="50" />
            </Array>
          </mxGeometry>
        </mxCell>
        <mxCell id="KpiGFDMDYY1Z0oeQy9Om-94" value="" style="endArrow=classic;html=1;entryX=0.5;entryY=1;entryDx=0;entryDy=0;" edge="1" parent="KpiGFDMDYY1Z0oeQy9Om-2" target="KpiGFDMDYY1Z0oeQy9Om-90">
          <mxGeometry width="50" height="50" relative="1" as="geometry">
            <mxPoint x="250" y="110" as="sourcePoint" />
            <mxPoint x="290" y="70" as="targetPoint" />
          </mxGeometry>
        </mxCell>
        <mxCell id="KpiGFDMDYY1Z0oeQy9Om-95" value="" style="endArrow=classic;html=1;exitX=1;exitY=0.5;exitDx=0;exitDy=0;entryX=0;entryY=0.5;entryDx=0;entryDy=0;entryPerimeter=0;" edge="1" parent="KpiGFDMDYY1Z0oeQy9Om-2" source="KpiGFDMDYY1Z0oeQy9Om-90" target="KpiGFDMDYY1Z0oeQy9Om-92">
          <mxGeometry width="50" height="50" relative="1" as="geometry">
            <mxPoint x="370" y="160" as="sourcePoint" />
            <mxPoint x="420" y="110" as="targetPoint" />
          </mxGeometry>
        </mxCell>
        <mxCell id="KpiGFDMDYY1Z0oeQy9Om-96" value="&lt;div style=&quot;text-align: justify&quot;&gt;&lt;span style=&quot;font-size: 6px&quot;&gt;&lt;sup&gt;Y&lt;/sup&gt;&lt;/span&gt;&lt;/div&gt;" style="ellipse;whiteSpace=wrap;html=1;aspect=fixed;" vertex="1" parent="KpiGFDMDYY1Z0oeQy9Om-2">
          <mxGeometry x="280" y="45" width="10" height="10" as="geometry" />
        </mxCell>
        <mxCell id="KpiGFDMDYY1Z0oeQy9Om-97" value="&lt;div style=&quot;text-align: justify&quot;&gt;&lt;span style=&quot;font-size: 6px&quot;&gt;&lt;sup&gt;N&lt;/sup&gt;&lt;/span&gt;&lt;/div&gt;" style="ellipse;whiteSpace=wrap;html=1;aspect=fixed;" vertex="1" parent="KpiGFDMDYY1Z0oeQy9Om-2">
          <mxGeometry x="210" y="45" width="10" height="10" as="geometry" />
        </mxCell>
        <mxCell id="KpiGFDMDYY1Z0oeQy9Om-16" value="event-streamer" style="swimlane;html=1;startSize=20;horizontal=0;" vertex="1" parent="KpiGFDMDYY1Z0oeQy9Om-1">
          <mxGeometry y="190" width="870" height="120" as="geometry" />
        </mxCell>
        <mxCell id="KpiGFDMDYY1Z0oeQy9Om-23" value="market-data-manager" style="swimlane;html=1;startSize=20;horizontal=0;" vertex="1" parent="KpiGFDMDYY1Z0oeQy9Om-1">
          <mxGeometry y="310" width="870" height="170" as="geometry" />
        </mxCell>
        <mxCell id="KpiGFDMDYY1Z0oeQy9Om-24" value="" style="endArrow=classic;html=1;entryX=0;entryY=0.5;entryDx=0;entryDy=0;entryPerimeter=0;exitX=1;exitY=0.5;exitDx=0;exitDy=0;" edge="1" parent="KpiGFDMDYY1Z0oeQy9Om-23" source="KpiGFDMDYY1Z0oeQy9Om-31" target="KpiGFDMDYY1Z0oeQy9Om-33">
          <mxGeometry width="50" height="50" relative="1" as="geometry">
            <mxPoint x="190" y="130" as="sourcePoint" />
            <mxPoint x="240" y="130" as="targetPoint" />
          </mxGeometry>
        </mxCell>
        <mxCell id="KpiGFDMDYY1Z0oeQy9Om-25" value="Subscribe to stock price topic" style="rounded=1;whiteSpace=wrap;html=1;shadow=0;labelBackgroundColor=none;strokeWidth=1;fontFamily=Verdana;fontSize=8;align=center;" vertex="1" parent="KpiGFDMDYY1Z0oeQy9Om-23">
          <mxGeometry x="210" y="20" width="80" height="40" as="geometry" />
        </mxCell>
        <mxCell id="KpiGFDMDYY1Z0oeQy9Om-26" value="new stock price received" style="rounded=1;whiteSpace=wrap;html=1;shadow=0;labelBackgroundColor=none;strokeWidth=1;fontFamily=Verdana;fontSize=8;align=center;" vertex="1" parent="KpiGFDMDYY1Z0oeQy9Om-23">
          <mxGeometry x="320" y="20" width="80" height="40" as="geometry" />
        </mxCell>
        <mxCell id="KpiGFDMDYY1Z0oeQy9Om-28" value="" style="ellipse;whiteSpace=wrap;html=1;rounded=0;shadow=0;labelBackgroundColor=none;strokeWidth=1;fontFamily=Verdana;fontSize=8;align=center;" vertex="1" parent="KpiGFDMDYY1Z0oeQy9Om-23">
          <mxGeometry x="40" y="105" width="30" height="30" as="geometry" />
        </mxCell>
        <mxCell id="KpiGFDMDYY1Z0oeQy9Om-29" value="" style="endArrow=classic;html=1;exitX=1;exitY=0.5;exitDx=0;exitDy=0;entryX=0;entryY=0.5;entryDx=0;entryDy=0;" edge="1" parent="KpiGFDMDYY1Z0oeQy9Om-23" source="KpiGFDMDYY1Z0oeQy9Om-28" target="KpiGFDMDYY1Z0oeQy9Om-30">
          <mxGeometry width="50" height="50" relative="1" as="geometry">
            <mxPoint x="10" y="114" as="sourcePoint" />
            <mxPoint x="100" y="105" as="targetPoint" />
          </mxGeometry>
        </mxCell>
        <mxCell id="KpiGFDMDYY1Z0oeQy9Om-30" value="Get Subscription setup from config" style="rounded=1;whiteSpace=wrap;html=1;shadow=0;labelBackgroundColor=none;strokeWidth=1;fontFamily=Verdana;fontSize=8;align=center;" vertex="1" parent="KpiGFDMDYY1Z0oeQy9Om-23">
          <mxGeometry x="100" y="100" width="80" height="40" as="geometry" />
        </mxCell>
        <mxCell id="KpiGFDMDYY1Z0oeQy9Om-31" value="&lt;font style=&quot;font-size: 8px&quot;&gt;exists&lt;/font&gt;" style="rhombus;whiteSpace=wrap;html=1;" vertex="1" parent="KpiGFDMDYY1Z0oeQy9Om-23">
          <mxGeometry x="230" y="100" width="40" height="40" as="geometry" />
        </mxCell>
        <mxCell id="KpiGFDMDYY1Z0oeQy9Om-32" value="" style="endArrow=classic;html=1;exitX=0.5;exitY=0;exitDx=0;exitDy=0;entryX=0.5;entryY=1;entryDx=0;entryDy=0;" edge="1" parent="KpiGFDMDYY1Z0oeQy9Om-23" source="KpiGFDMDYY1Z0oeQy9Om-31" target="KpiGFDMDYY1Z0oeQy9Om-25">
          <mxGeometry width="50" height="50" relative="1" as="geometry">
            <mxPoint x="290" y="420" as="sourcePoint" />
            <mxPoint x="290" y="450" as="targetPoint" />
          </mxGeometry>
        </mxCell>
        <mxCell id="KpiGFDMDYY1Z0oeQy9Om-33" value="&lt;font style=&quot;font-size: 8px&quot;&gt;End&lt;/font&gt;" style="strokeWidth=2;html=1;shape=mxgraph.flowchart.terminator;whiteSpace=wrap;" vertex="1" parent="KpiGFDMDYY1Z0oeQy9Om-23">
          <mxGeometry x="320" y="100" width="80" height="40" as="geometry" />
        </mxCell>
        <mxCell id="KpiGFDMDYY1Z0oeQy9Om-34" value="&lt;div style=&quot;text-align: justify&quot;&gt;&lt;span style=&quot;font-size: 6px&quot;&gt;&lt;sup&gt;N&lt;/sup&gt;&lt;/span&gt;&lt;/div&gt;" style="ellipse;whiteSpace=wrap;html=1;aspect=fixed;" vertex="1" parent="KpiGFDMDYY1Z0oeQy9Om-23">
          <mxGeometry x="275" y="115" width="10" height="10" as="geometry" />
        </mxCell>
        <mxCell id="KpiGFDMDYY1Z0oeQy9Om-35" value="&lt;div style=&quot;text-align: justify&quot;&gt;&lt;span style=&quot;font-size: 6px&quot;&gt;&lt;sup&gt;Y&lt;/sup&gt;&lt;/span&gt;&lt;/div&gt;" style="ellipse;whiteSpace=wrap;html=1;aspect=fixed;" vertex="1" parent="KpiGFDMDYY1Z0oeQy9Om-23">
          <mxGeometry x="245" y="86" width="10" height="10" as="geometry" />
        </mxCell>
        <mxCell id="KpiGFDMDYY1Z0oeQy9Om-36" value="" style="endArrow=classic;html=1;entryX=0;entryY=0.5;entryDx=0;entryDy=0;" edge="1" parent="KpiGFDMDYY1Z0oeQy9Om-23" target="KpiGFDMDYY1Z0oeQy9Om-31">
          <mxGeometry width="50" height="50" relative="1" as="geometry">
            <mxPoint x="180" y="120" as="sourcePoint" />
            <mxPoint x="110" y="130" as="targetPoint" />
          </mxGeometry>
        </mxCell>
        <mxCell id="KpiGFDMDYY1Z0oeQy9Om-37" value="&lt;span style=&quot;font-size: 8px&quot;&gt;have&lt;/span&gt;" style="rhombus;whiteSpace=wrap;html=1;" vertex="1" parent="KpiGFDMDYY1Z0oeQy9Om-23">
          <mxGeometry x="670" y="20" width="40" height="40" as="geometry" />
        </mxCell>
        <mxCell id="KpiGFDMDYY1Z0oeQy9Om-66" value="" style="endArrow=classic;html=1;exitX=0.5;exitY=0;exitDx=0;exitDy=0;" edge="1" parent="KpiGFDMDYY1Z0oeQy9Om-23" source="KpiGFDMDYY1Z0oeQy9Om-25">
          <mxGeometry width="50" height="50" relative="1" as="geometry">
            <mxPoint x="320" y="80" as="sourcePoint" />
            <mxPoint x="250" y="-30" as="targetPoint" />
          </mxGeometry>
        </mxCell>
        <mxCell id="KpiGFDMDYY1Z0oeQy9Om-69" value="add price to in-memory queue" style="rounded=1;whiteSpace=wrap;html=1;shadow=0;labelBackgroundColor=none;strokeWidth=1;fontFamily=Verdana;fontSize=8;align=center;" vertex="1" parent="KpiGFDMDYY1Z0oeQy9Om-23">
          <mxGeometry x="430" y="20" width="80" height="40" as="geometry" />
        </mxCell>
        <mxCell id="KpiGFDMDYY1Z0oeQy9Om-70" value="get latest price from queue" style="rounded=1;whiteSpace=wrap;html=1;shadow=0;labelBackgroundColor=none;strokeWidth=1;fontFamily=Verdana;fontSize=8;align=center;" vertex="1" parent="KpiGFDMDYY1Z0oeQy9Om-23">
          <mxGeometry x="540" y="20" width="80" height="40" as="geometry" />
        </mxCell>
        <mxCell id="KpiGFDMDYY1Z0oeQy9Om-72" value="sleep" style="rounded=1;whiteSpace=wrap;html=1;shadow=0;labelBackgroundColor=none;strokeWidth=1;fontFamily=Verdana;fontSize=8;align=center;" vertex="1" parent="KpiGFDMDYY1Z0oeQy9Om-23">
          <mxGeometry x="650" y="100" width="80" height="40" as="geometry" />
        </mxCell>
        <mxCell id="KpiGFDMDYY1Z0oeQy9Om-73" value="&lt;font style=&quot;font-size: 8px&quot;&gt;snooze limit&lt;/font&gt;" style="rhombus;whiteSpace=wrap;html=1;" vertex="1" parent="KpiGFDMDYY1Z0oeQy9Om-23">
          <mxGeometry x="560" y="100" width="40" height="40" as="geometry" />
        </mxCell>
        <mxCell id="KpiGFDMDYY1Z0oeQy9Om-74" value="" style="endArrow=classic;html=1;entryX=1;entryY=0.5;entryDx=0;entryDy=0;entryPerimeter=0;exitX=0;exitY=0.5;exitDx=0;exitDy=0;startArrow=none;" edge="1" parent="KpiGFDMDYY1Z0oeQy9Om-23" source="KpiGFDMDYY1Z0oeQy9Om-102" target="KpiGFDMDYY1Z0oeQy9Om-33">
          <mxGeometry width="50" height="50" relative="1" as="geometry">
            <mxPoint x="450" y="160" as="sourcePoint" />
            <mxPoint x="500" y="110" as="targetPoint" />
          </mxGeometry>
        </mxCell>
        <mxCell id="KpiGFDMDYY1Z0oeQy9Om-76" value="" style="endArrow=classic;html=1;exitX=1;exitY=0.5;exitDx=0;exitDy=0;entryX=0;entryY=0.5;entryDx=0;entryDy=0;" edge="1" parent="KpiGFDMDYY1Z0oeQy9Om-23" source="KpiGFDMDYY1Z0oeQy9Om-26" target="KpiGFDMDYY1Z0oeQy9Om-69">
          <mxGeometry width="50" height="50" relative="1" as="geometry">
            <mxPoint x="390" y="110" as="sourcePoint" />
            <mxPoint x="440" y="60" as="targetPoint" />
          </mxGeometry>
        </mxCell>
        <mxCell id="KpiGFDMDYY1Z0oeQy9Om-77" value="" style="endArrow=classic;html=1;entryX=0;entryY=0.5;entryDx=0;entryDy=0;exitX=1;exitY=0.5;exitDx=0;exitDy=0;" edge="1" parent="KpiGFDMDYY1Z0oeQy9Om-23" source="KpiGFDMDYY1Z0oeQy9Om-69" target="KpiGFDMDYY1Z0oeQy9Om-70">
          <mxGeometry width="50" height="50" relative="1" as="geometry">
            <mxPoint x="490" y="120" as="sourcePoint" />
            <mxPoint x="540" y="70" as="targetPoint" />
          </mxGeometry>
        </mxCell>
        <mxCell id="KpiGFDMDYY1Z0oeQy9Om-78" value="" style="endArrow=classic;html=1;entryX=0;entryY=0.5;entryDx=0;entryDy=0;exitX=1;exitY=0.5;exitDx=0;exitDy=0;" edge="1" parent="KpiGFDMDYY1Z0oeQy9Om-23" source="KpiGFDMDYY1Z0oeQy9Om-70" target="KpiGFDMDYY1Z0oeQy9Om-37">
          <mxGeometry width="50" height="50" relative="1" as="geometry">
            <mxPoint x="500" y="120" as="sourcePoint" />
            <mxPoint x="550" y="70" as="targetPoint" />
          </mxGeometry>
        </mxCell>
        <mxCell id="KpiGFDMDYY1Z0oeQy9Om-79" value="" style="endArrow=classic;html=1;exitX=0.5;exitY=1;exitDx=0;exitDy=0;" edge="1" parent="KpiGFDMDYY1Z0oeQy9Om-23" source="KpiGFDMDYY1Z0oeQy9Om-37">
          <mxGeometry width="50" height="50" relative="1" as="geometry">
            <mxPoint x="520" y="120" as="sourcePoint" />
            <mxPoint x="690" y="100" as="targetPoint" />
          </mxGeometry>
        </mxCell>
        <mxCell id="KpiGFDMDYY1Z0oeQy9Om-80" value="" style="endArrow=classic;html=1;entryX=1;entryY=0.5;entryDx=0;entryDy=0;exitX=0;exitY=0.5;exitDx=0;exitDy=0;" edge="1" parent="KpiGFDMDYY1Z0oeQy9Om-23" source="KpiGFDMDYY1Z0oeQy9Om-72" target="KpiGFDMDYY1Z0oeQy9Om-73">
          <mxGeometry width="50" height="50" relative="1" as="geometry">
            <mxPoint x="600" y="170" as="sourcePoint" />
            <mxPoint x="650" y="120" as="targetPoint" />
          </mxGeometry>
        </mxCell>
        <mxCell id="KpiGFDMDYY1Z0oeQy9Om-81" value="" style="endArrow=classic;html=1;entryX=0.5;entryY=1;entryDx=0;entryDy=0;exitX=0.5;exitY=0;exitDx=0;exitDy=0;" edge="1" parent="KpiGFDMDYY1Z0oeQy9Om-23" source="KpiGFDMDYY1Z0oeQy9Om-73" target="KpiGFDMDYY1Z0oeQy9Om-70">
          <mxGeometry width="50" height="50" relative="1" as="geometry">
            <mxPoint x="490" y="130" as="sourcePoint" />
            <mxPoint x="540" y="80" as="targetPoint" />
          </mxGeometry>
        </mxCell>
        <mxCell id="KpiGFDMDYY1Z0oeQy9Om-82" value="show to &amp;nbsp;UI" style="rounded=1;whiteSpace=wrap;html=1;shadow=0;labelBackgroundColor=none;strokeWidth=1;fontFamily=Verdana;fontSize=8;align=center;" vertex="1" parent="KpiGFDMDYY1Z0oeQy9Om-23">
          <mxGeometry x="760" y="20" width="80" height="40" as="geometry" />
        </mxCell>
        <mxCell id="KpiGFDMDYY1Z0oeQy9Om-87" value="" style="image;html=1;image=img/lib/clip_art/computers/MacBook_128x128.png" vertex="1" parent="KpiGFDMDYY1Z0oeQy9Om-23">
          <mxGeometry x="760" y="90" width="80" height="60" as="geometry" />
        </mxCell>
        <mxCell id="KpiGFDMDYY1Z0oeQy9Om-88" value="" style="endArrow=classic;html=1;exitX=1;exitY=0.5;exitDx=0;exitDy=0;" edge="1" parent="KpiGFDMDYY1Z0oeQy9Om-23" source="KpiGFDMDYY1Z0oeQy9Om-37">
          <mxGeometry width="50" height="50" relative="1" as="geometry">
            <mxPoint x="710" y="90" as="sourcePoint" />
            <mxPoint x="760" y="40" as="targetPoint" />
          </mxGeometry>
        </mxCell>
        <mxCell id="KpiGFDMDYY1Z0oeQy9Om-89" value="" style="endArrow=classic;html=1;exitX=0.5;exitY=1;exitDx=0;exitDy=0;entryX=0.5;entryY=0;entryDx=0;entryDy=0;" edge="1" parent="KpiGFDMDYY1Z0oeQy9Om-23" source="KpiGFDMDYY1Z0oeQy9Om-82" target="KpiGFDMDYY1Z0oeQy9Om-87">
          <mxGeometry width="50" height="50" relative="1" as="geometry">
            <mxPoint x="730" y="120" as="sourcePoint" />
            <mxPoint x="780" y="70" as="targetPoint" />
          </mxGeometry>
        </mxCell>
        <mxCell id="KpiGFDMDYY1Z0oeQy9Om-101" value="&lt;div style=&quot;text-align: justify&quot;&gt;&lt;span style=&quot;font-size: 6px&quot;&gt;&lt;sup&gt;N&lt;/sup&gt;&lt;/span&gt;&lt;/div&gt;" style="ellipse;whiteSpace=wrap;html=1;aspect=fixed;" vertex="1" parent="KpiGFDMDYY1Z0oeQy9Om-23">
          <mxGeometry x="575" y="86" width="10" height="10" as="geometry" />
        </mxCell>
        <mxCell id="KpiGFDMDYY1Z0oeQy9Om-102" value="&lt;div style=&quot;text-align: justify&quot;&gt;&lt;span style=&quot;font-size: 6px&quot;&gt;&lt;sup&gt;Y&lt;/sup&gt;&lt;/span&gt;&lt;/div&gt;" style="ellipse;whiteSpace=wrap;html=1;aspect=fixed;" vertex="1" parent="KpiGFDMDYY1Z0oeQy9Om-23">
          <mxGeometry x="540" y="115" width="10" height="10" as="geometry" />
        </mxCell>
        <mxCell id="KpiGFDMDYY1Z0oeQy9Om-103" value="" style="endArrow=none;html=1;entryX=1;entryY=0.5;entryDx=0;entryDy=0;entryPerimeter=0;exitX=0;exitY=0.5;exitDx=0;exitDy=0;" edge="1" parent="KpiGFDMDYY1Z0oeQy9Om-23" source="KpiGFDMDYY1Z0oeQy9Om-73" target="KpiGFDMDYY1Z0oeQy9Om-102">
          <mxGeometry width="50" height="50" relative="1" as="geometry">
            <mxPoint x="600" y="470" as="sourcePoint" />
            <mxPoint x="440" y="470" as="targetPoint" />
          </mxGeometry>
        </mxCell>
        <mxCell id="KpiGFDMDYY1Z0oeQy9Om-104" value="&lt;div style=&quot;text-align: justify&quot;&gt;&lt;span style=&quot;font-size: 6px&quot;&gt;&lt;sup&gt;N&lt;/sup&gt;&lt;/span&gt;&lt;/div&gt;" style="ellipse;whiteSpace=wrap;html=1;aspect=fixed;" vertex="1" parent="KpiGFDMDYY1Z0oeQy9Om-23">
          <mxGeometry x="685" y="70" width="10" height="10" as="geometry" />
        </mxCell>
        <mxCell id="KpiGFDMDYY1Z0oeQy9Om-105" value="&lt;div style=&quot;text-align: justify&quot;&gt;&lt;span style=&quot;font-size: 6px&quot;&gt;&lt;sup&gt;Y&lt;/sup&gt;&lt;/span&gt;&lt;/div&gt;" style="ellipse;whiteSpace=wrap;html=1;aspect=fixed;" vertex="1" parent="KpiGFDMDYY1Z0oeQy9Om-23">
          <mxGeometry x="720" y="35" width="10" height="10" as="geometry" />
        </mxCell>
        <mxCell id="KpiGFDMDYY1Z0oeQy9Om-47" value="" style="shape=table;html=1;whiteSpace=wrap;startSize=0;container=1;collapsible=0;childLayout=tableLayout;" vertex="1" parent="1">
          <mxGeometry x="140" y="260" width="420" height="40" as="geometry" />
        </mxCell>
        <mxCell id="KpiGFDMDYY1Z0oeQy9Om-48" value="" style="shape=partialRectangle;html=1;whiteSpace=wrap;collapsible=0;dropTarget=0;pointerEvents=0;fillColor=none;top=0;left=0;bottom=0;right=0;points=[[0,0.5],[1,0.5]];portConstraint=eastwest;" vertex="1" parent="KpiGFDMDYY1Z0oeQy9Om-47">
          <mxGeometry width="420" height="40" as="geometry" />
        </mxCell>
        <mxCell id="KpiGFDMDYY1Z0oeQy9Om-49" value="" style="shape=partialRectangle;html=1;whiteSpace=wrap;connectable=0;overflow=hidden;fillColor=none;top=0;left=0;bottom=0;right=0;" vertex="1" parent="KpiGFDMDYY1Z0oeQy9Om-48">
          <mxGeometry width="105" height="40" as="geometry" />
        </mxCell>
        <mxCell id="KpiGFDMDYY1Z0oeQy9Om-50" value="" style="shape=partialRectangle;html=1;whiteSpace=wrap;connectable=0;overflow=hidden;fillColor=none;top=0;left=0;bottom=0;right=0;" vertex="1" parent="KpiGFDMDYY1Z0oeQy9Om-48">
          <mxGeometry x="105" width="105" height="40" as="geometry" />
        </mxCell>
        <mxCell id="KpiGFDMDYY1Z0oeQy9Om-51" value="" style="shape=partialRectangle;html=1;whiteSpace=wrap;connectable=0;overflow=hidden;fillColor=none;top=0;left=0;bottom=0;right=0;" vertex="1" parent="KpiGFDMDYY1Z0oeQy9Om-48">
          <mxGeometry x="210" width="105" height="40" as="geometry" />
        </mxCell>
        <mxCell id="KpiGFDMDYY1Z0oeQy9Om-52" value="" style="shape=partialRectangle;html=1;whiteSpace=wrap;connectable=0;overflow=hidden;fillColor=none;top=0;left=0;bottom=0;right=0;" vertex="1" parent="KpiGFDMDYY1Z0oeQy9Om-48">
          <mxGeometry x="315" width="105" height="40" as="geometry" />
        </mxCell>
        <mxCell id="KpiGFDMDYY1Z0oeQy9Om-53" value="" style="shape=table;html=1;whiteSpace=wrap;startSize=0;container=1;collapsible=0;childLayout=tableLayout;" vertex="1" parent="1">
          <mxGeometry x="150" y="270" width="430" height="40" as="geometry" />
        </mxCell>
        <mxCell id="KpiGFDMDYY1Z0oeQy9Om-54" value="" style="shape=partialRectangle;html=1;whiteSpace=wrap;collapsible=0;dropTarget=0;pointerEvents=0;fillColor=none;top=0;left=0;bottom=0;right=0;points=[[0,0.5],[1,0.5]];portConstraint=eastwest;" vertex="1" parent="KpiGFDMDYY1Z0oeQy9Om-53">
          <mxGeometry width="430" height="40" as="geometry" />
        </mxCell>
        <mxCell id="KpiGFDMDYY1Z0oeQy9Om-55" value="" style="shape=partialRectangle;html=1;whiteSpace=wrap;connectable=0;overflow=hidden;fillColor=none;top=0;left=0;bottom=0;right=0;" vertex="1" parent="KpiGFDMDYY1Z0oeQy9Om-54">
          <mxGeometry width="108" height="40" as="geometry" />
        </mxCell>
        <mxCell id="KpiGFDMDYY1Z0oeQy9Om-56" value="" style="shape=partialRectangle;html=1;whiteSpace=wrap;connectable=0;overflow=hidden;fillColor=none;top=0;left=0;bottom=0;right=0;" vertex="1" parent="KpiGFDMDYY1Z0oeQy9Om-54">
          <mxGeometry x="108" width="107" height="40" as="geometry" />
        </mxCell>
        <mxCell id="KpiGFDMDYY1Z0oeQy9Om-57" value="" style="shape=partialRectangle;html=1;whiteSpace=wrap;connectable=0;overflow=hidden;fillColor=none;top=0;left=0;bottom=0;right=0;" vertex="1" parent="KpiGFDMDYY1Z0oeQy9Om-54">
          <mxGeometry x="215" width="108" height="40" as="geometry" />
        </mxCell>
        <mxCell id="KpiGFDMDYY1Z0oeQy9Om-58" value="" style="shape=partialRectangle;html=1;whiteSpace=wrap;connectable=0;overflow=hidden;fillColor=none;top=0;left=0;bottom=0;right=0;" vertex="1" parent="KpiGFDMDYY1Z0oeQy9Om-54">
          <mxGeometry x="323" width="107" height="40" as="geometry" />
        </mxCell>
        <mxCell id="KpiGFDMDYY1Z0oeQy9Om-59" value="" style="shape=table;html=1;whiteSpace=wrap;startSize=0;container=1;collapsible=0;childLayout=tableLayout;" vertex="1" parent="1">
          <mxGeometry x="160" y="280" width="430" height="40" as="geometry" />
        </mxCell>
        <mxCell id="KpiGFDMDYY1Z0oeQy9Om-60" value="" style="shape=partialRectangle;html=1;whiteSpace=wrap;collapsible=0;dropTarget=0;pointerEvents=0;fillColor=none;top=0;left=0;bottom=0;right=0;points=[[0,0.5],[1,0.5]];portConstraint=eastwest;" vertex="1" parent="KpiGFDMDYY1Z0oeQy9Om-59">
          <mxGeometry width="430" height="40" as="geometry" />
        </mxCell>
        <mxCell id="KpiGFDMDYY1Z0oeQy9Om-61" value="" style="shape=partialRectangle;html=1;whiteSpace=wrap;connectable=0;overflow=hidden;fillColor=none;top=0;left=0;bottom=0;right=0;" vertex="1" parent="KpiGFDMDYY1Z0oeQy9Om-60">
          <mxGeometry width="108" height="40" as="geometry" />
        </mxCell>
        <mxCell id="KpiGFDMDYY1Z0oeQy9Om-62" value="" style="shape=partialRectangle;html=1;whiteSpace=wrap;connectable=0;overflow=hidden;fillColor=none;top=0;left=0;bottom=0;right=0;" vertex="1" parent="KpiGFDMDYY1Z0oeQy9Om-60">
          <mxGeometry x="108" width="107" height="40" as="geometry" />
        </mxCell>
        <mxCell id="KpiGFDMDYY1Z0oeQy9Om-63" value="" style="shape=partialRectangle;html=1;whiteSpace=wrap;connectable=0;overflow=hidden;fillColor=none;top=0;left=0;bottom=0;right=0;" vertex="1" parent="KpiGFDMDYY1Z0oeQy9Om-60">
          <mxGeometry x="215" width="108" height="40" as="geometry" />
        </mxCell>
        <mxCell id="KpiGFDMDYY1Z0oeQy9Om-64" value="" style="shape=partialRectangle;html=1;whiteSpace=wrap;connectable=0;overflow=hidden;fillColor=none;top=0;left=0;bottom=0;right=0;" vertex="1" parent="KpiGFDMDYY1Z0oeQy9Om-60">
          <mxGeometry x="323" width="107" height="40" as="geometry" />
        </mxCell>
        <mxCell id="KpiGFDMDYY1Z0oeQy9Om-65" value="ticker topic" style="text;html=1;strokeColor=none;fillColor=none;align=center;verticalAlign=middle;whiteSpace=wrap;rounded=0;" vertex="1" parent="1">
          <mxGeometry x="325" y="290" width="80" height="20" as="geometry" />
        </mxCell>
        <mxCell id="KpiGFDMDYY1Z0oeQy9Om-91" value="" style="endArrow=classic;html=1;exitX=0.5;exitY=1;exitDx=0;exitDy=0;" edge="1" parent="1" source="KpiGFDMDYY1Z0oeQy9Om-67">
          <mxGeometry width="50" height="50" relative="1" as="geometry">
            <mxPoint x="270" y="280" as="sourcePoint" />
            <mxPoint x="290" y="260" as="targetPoint" />
          </mxGeometry>
        </mxCell>
        <mxCell id="KpiGFDMDYY1Z0oeQy9Om-75" value="" style="endArrow=classic;html=1;entryX=0.5;entryY=0;entryDx=0;entryDy=0;exitX=0.558;exitY=1.013;exitDx=0;exitDy=0;exitPerimeter=0;" edge="1" parent="1" source="KpiGFDMDYY1Z0oeQy9Om-60" target="KpiGFDMDYY1Z0oeQy9Om-26">
          <mxGeometry width="50" height="50" relative="1" as="geometry">
            <mxPoint x="410" y="330" as="sourcePoint" />
            <mxPoint x="490" y="420" as="targetPoint" />
          </mxGeometry>
        </mxCell>
      </root>
    </mxGraphModel>
  </diagram>
</mxfile>
